<svg fill="#d3b4b4" width="18px" height="18px" viewBox="-2 -3.68 23.36 23.36" xmlns="http://www.w3.org/2000/svg"
    stroke="#d3b4b4" stroke-width="0.00018">

    <g id="SVGRepo_bgCarrier" stroke-width="0" />

    <g id="SVGRepo_tracerCarrier" stroke-linecap="round" stroke-linejoin="round" stroke="#746363" stroke-width="1.6">
        <path
            d="M11.477 3.11a6 6 0 0 0-8.367 8.367l8.367-8.368zm1.414 1.413l-8.368 8.368a6 6 0 0 0 8.367-8.367zM8 0a8 8 0 1 1 0 16A8 8 0 0 1 8 0z"
            fill-rule="evenodd" />
    </g>

    <g id="SVGRepo_iconCarrier">
        <path
            d="M11.477 3.11a6 6 0 0 0-8.367 8.367l8.367-8.368zm1.414 1.413l-8.368 8.368a6 6 0 0 0 8.367-8.367zM8 0a8 8 0 1 1 0 16A8 8 0 0 1 8 0z"
            fill-rule="evenodd" />
    </g>

</svg>